# xmcd
#
# Track frame offsets:
#	150
#	10511
#	21424
#	30510
#	43197
#	54335
#	67774
#	81578
#	92975
#	102095
#	115656
#	126526
#
# Disc length: 2047 seconds
#
# Revision: 0
# Processed by: cddbd v1.5.1PL0 Copyright (c) Steve Scherf et al.
# Submitted via: dBpowerAMP V4.0
#
DISCID=9607fd0c
DTITLE=Various Artist - The Blues Came From Memphis
DYEAR=1900
DGENRE=
TTITLE0=Have a Good Time - Shakey Horton
TTITLE1=T-Model Boogie - Roscoe Gordon
TTITLE2=I Wonder What's The Matter - Memphis Slim
TTITLE3=Fixin' to Die Blues - Bukka White
TTITLE4=Kissin' In The Dark - Memphis Minnie
TTITLE5=Ain't No Way To Get Along - Robert Wilkins
TTITLE6=Rats In My Kitchen - Sleepy John Estes
TTITLE7=K.C. Moan - Memphis Jug Band
TTITLE8=Get Over It Baby - Ike Turner
TTITLE9=Cotton Crop Blues - James Cotton
TTITLE10=Beggin' My Baby - Little Milton
TTITLE11=Walkin' the Dog - Rufus Thomas
EXTD=
EXTT0=
EXTT1=
EXTT2=
EXTT3=
EXTT4=
EXTT5=
EXTT6=
EXTT7=
EXTT8=
EXTT9=
EXTT10=
EXTT11=
PLAYORDER=
